<?xml version="1.0"?>
<svg xmlns="http://www.w3.org/2000/svg" xmlns:xlink="http://www.w3.org/1999/xlink" xmlns:svgjs="http://svgjs.com/svgjs" version="1.1" width="512" height="512" x="0" y="0" viewBox="0 0 496.998 496.998" style="enable-background:new 0 0 512 512" xml:space="preserve" class=""><g><g xmlns="http://www.w3.org/2000/svg"><g><path clip-rule="evenodd" d="m112.189 277.959 8.93-35.861-8.93-27.981h-35.152l-6.095 31.921 6.095 31.921z" fill="#eff6ff" fill-rule="evenodd" data-original="#eff6ff" style=""/></g><g><path clip-rule="evenodd" d="m77.038 214.119v63.84l-47.855 59.412c-.688.854-1.938 1-2.795.316-5.847-4.662-25.935-23.03-26.379-55.628-.07-4.91.31-10.14 1.25-15.71 1.07-6.34 2.88-13.11 5.59-20.31-3.52-9.34-5.51-17.96-6.35-25.86-.61-5.6-.63-10.84-.22-15.71 2.471-29.129 20.591-45.675 26.103-50.073.862-.687 2.111-.546 2.802.312z" fill="#a0ddfa" fill-rule="evenodd" data-original="#a0ddfa" style="" class=""/></g><g><path clip-rule="evenodd" d="m29.183 337.371 47.854-59.411v-32.403c-3.77 5.556-67.752 71.893-65.286 75.692 5.656 8.736 11.808 14.19 14.634 16.442.998.795 2.798-.32 2.798-.32z" fill="#75cef9" fill-rule="evenodd" data-original="#75cef9" style="" class=""/></g><g><path clip-rule="evenodd" d="m383.227 409.782c27.81-18.625 36.711-56.811 34.925-74.388-16.394 0-34.746 0-34.746 0-.85.369-19.74 25.968-20.59 26.308-.057.028-.085.028-.142.057-12.445 29.058-27.98 39.604-53.238 60.78-9.78 8.193 48.448 4.253 73.791-12.757z" fill="#a0ddfa" fill-rule="evenodd" data-original="#a0ddfa" style="" class=""/></g><g><path clip-rule="evenodd" d="m112.189 277.959-29.426 67.811c-33.734 77.733 108.461 72.97 235.319 32.148-70.757-10.602-137.205-34.784-205.893-99.959z" fill="#a0ddfa" fill-rule="evenodd" data-original="#a0ddfa" style="" class=""/></g><g><path clip-rule="evenodd" d="m327.919 100.211c-132.414-48.704-285.297-39.802-248.614 41.219l32.884 72.687c27.951-98.711 119.403-111.213 215.73-113.906z" fill="#a0ddfa" fill-rule="evenodd" data-original="#a0ddfa" style="" class=""/></g><g><path clip-rule="evenodd" d="m171.862 351.525c27.129-119.746-16.499-118.868-8.136-230.62-37.675 27.357-46.718 69.03-51.537 93.212v63.842c8.136 17.605 22.48 50.093 59.673 73.566z" fill="#fde588" fill-rule="evenodd" data-original="#fde588" style="" class=""/></g><g><path clip-rule="evenodd" d="m331.888 373.297c14.826-61.943 15.988-147.642 4.848-196.26-11.169-48.647-10.404-55.026-3.997-75.012-1.616-.595-3.203-1.219-4.819-1.814-19.192-3.345-36.626-5.245-52.473-5.897-23.699 100.724 29.992 150.052 1.106 284.908 12.785.34 26.619-.057 41.53-1.304 4.62-1.502 9.241-3.033 13.805-4.621z" fill="#fde588" fill-rule="evenodd" data-original="#fde588" style="" class=""/></g><g><path clip-rule="evenodd" d="m365.367 360.654c77.958-32.034 139.133-76.883 130.884-121.731-19.135-53.721-71.835-95.763-133.776-124.424-25.343 38.753 16.924 151.441.34 247.204.852-.341 1.702-.681 2.552-1.049zm71.977-130.803c-6.832 6.86-17.916 6.86-24.776 0-6.832-6.832-6.832-17.917 0-24.749 6.86-6.86 17.944-6.86 24.776 0 6.86 6.832 6.86 17.917 0 24.749z" fill="#fde588" fill-rule="evenodd" data-original="#fde588" style="" class=""/></g><g><path clip-rule="evenodd" d="m248.629 377.181c18.455-76.457 15.903-132.985 6.35-180.102-9.553-47.144-12.105-86.153-7.371-102.595-19.986 1.134-36.938 4.564-51.339 9.639-28.859 100.611 25.315 166.551 1.077 260.301 14.459 5.783 31.411 10.262 51.283 12.757z" fill="#fde588" fill-rule="evenodd" data-original="#fde588" style="" class=""/></g><g><path clip-rule="evenodd" d="m412.567 229.851c6.86 6.86 17.944 6.86 24.776 0 6.86-6.832 6.86-17.917 0-24.749-6.832-6.86-17.916-6.86-24.776 0-6.832 6.832-6.832 17.917 0 24.749z" fill="#7e707d" fill-rule="evenodd" data-original="#7e707d" style=""/></g><g><path clip-rule="evenodd" d="m197.347 364.424c6.463-19.249 11.027-44.792 11.254-78.47.227-31.723-8.76-53.183-12.558-72.29-6.152-30.929-8.164-65.089.227-109.541-12.728 4.451-23.472 10.206-32.544 16.783-15.478 108.549 27.951 107.585 8.136 230.62 7.512 4.733 15.96 9.099 25.485 12.898z" fill="#fe8d94" fill-rule="evenodd" data-original="#fe8d94" style="" class=""/></g><g><path clip-rule="evenodd" d="m276.552 379.222c38.015-133.184-16.442-182.653-1.106-284.908-9.894-.397-19.163-.34-27.838.17-4.734 16.442-9.128 54.969.425 102.113 9.553 47.116 19.05 104.126.595 180.583 8.733 1.078 18.031 1.787 27.924 2.042z" fill="#fe8d94" fill-rule="evenodd" data-original="#fe8d94" style="" class=""/></g><g><path clip-rule="evenodd" d="m365.367 360.654c77.958-32.034 139.133-76.883 130.884-121.731-4.592-12.927-11.141-25.174-19.305-36.712.454 1.162.907 2.325 1.304 3.487 7.569 41.078-43.089 82.127-111.55 113.368-.312 14.401-1.474 28.689-3.884 42.637.851-.341 1.701-.681 2.551-1.049z" fill="#fdd76f" fill-rule="evenodd" data-original="#fdd76f" style="" class=""/></g><g><path clip-rule="evenodd" d="m248.629 377.181c1.191-4.848 2.24-9.639 3.203-14.345 1.162-5.755 2.154-11.396 3.033-16.953-8.533-.312-16.584-.964-24.209-1.928-9.61-1.191-18.511-2.863-26.789-4.904-.227 1.332-.51 2.665-.765 3.969-1.644 7.881-3.6 14.997-5.755 21.404 14.458 5.783 31.41 10.262 51.282 12.757z" fill="#fdd76f" fill-rule="evenodd" data-original="#fdd76f" style="" class=""/></g><g><path clip-rule="evenodd" d="m276.552 379.222c.85-2.977 1.644-5.925 2.41-8.817 2.24-8.561 4.111-16.783 5.613-24.692-.737.028-1.502.085-2.24.113-8.306.34-16.215.397-23.784.198-1.106-.028-2.211-.085-3.317-.113-.113 0-.255 0-.369-.028-.879 5.556-1.871 11.198-3.033 16.953-.964 4.706-2.013 9.469-3.175 14.316l-.028.028c8.732 1.078 18.03 1.787 27.923 2.042z" fill="#ff6d75" fill-rule="evenodd" data-original="#ff6d75" style="" class=""/></g><g><path clip-rule="evenodd" d="m318.083 377.918c4.621-1.503 9.242-3.033 13.806-4.621 2.948-12.303 5.358-25.542 7.229-39.235v-.028c.142-1.134.312-2.296.425-3.43-8.391 3.317-16.981 6.464-25.655 9.469-4.564 1.588-9.185 3.147-13.806 4.621-5.301.454-10.461.794-15.507 1.021-1.502 7.909-3.373 16.131-5.613 24.692-.765 2.892-1.559 5.84-2.41 8.817 12.785.338 26.619-.059 41.531-1.306z" fill="#fdd76f" fill-rule="evenodd" data-original="#fdd76f" style="" class=""/></g><g><path clip-rule="evenodd" d="m362.816 361.702c6.01-18.937 7.371-13.749 10.404-75.749 3.033-61.971-26.931-131.88-10.744-171.455-9.723-4.479-19.674-8.646-29.737-12.474-6.407 19.986-9.156 45.103-2.268 75.012 15.421 67.329 16.244 134.318 1.417 196.26 10.517-3.627 20.864-7.511 30.928-11.594z" fill="#fe8d94" fill-rule="evenodd" data-original="#fe8d94" style="" class=""/></g><g><path clip-rule="evenodd" d="m362.816 361.702c4.734-14.968 6.605-14.883 8.675-44.848-7.824 3.657-15.875 7.201-24.096 10.574-.879.369-1.729.709-2.58 1.049-1.758.709-3.487 1.417-5.273 2.126-1.758 14.458-4.309 28.718-7.654 42.694 10.517-3.628 20.864-7.512 30.928-11.595z" fill="#ff6d75" fill-rule="evenodd" data-original="#ff6d75" style="" class=""/></g><g><path clip-rule="evenodd" d="m171.862 351.525c1.276-7.881 2.268-15.223 3.062-22.141-7.739-3.374-14.741-7.087-21.063-11.084-19.248-12.133-32.374-26.676-41.672-40.341 8.136 17.605 22.48 50.093 59.673 73.566z" fill="#fdd76f" fill-rule="evenodd" data-original="#fdd76f" style="" class=""/></g><g><path clip-rule="evenodd" d="m197.347 364.424c2.154-6.407 4.111-13.523 5.755-21.404.255-1.304.539-2.636.765-3.969-.539-.142-1.077-.284-1.616-.397-5.868-1.503-11.396-3.203-16.64-5.074-2.126-.765-4.224-1.559-6.265-2.353-1.049-.425-2.069-.85-3.118-1.304-.425-.17-.879-.369-1.304-.539-.794 6.917-1.786 14.26-3.062 22.141 7.512 4.734 15.96 9.1 25.485 12.899z" fill="#ff6d75" fill-rule="evenodd" data-original="#ff6d75" style="" class=""/></g><g><path clip-rule="evenodd" d="m77.037 245.556h35.152v32.403h-35.152z" fill="#d9eeff" fill-rule="evenodd" data-original="#d9eeff" style=""/></g><g><path d="m42.878 228.459c-1.15 2.98-3.99 4.81-7 4.81-.9 0-1.81-.16-2.7-.5l-32.68-12.59c-.61-5.6-.63-10.84-.22-15.71.81.02 1.63.18 2.43.49l35.86 13.81c3.87 1.49 5.79 5.83 4.31 9.69z" fill="#75cef9" data-original="#75cef9" style="" class=""/></g><g><path d="m38.038 270.939-35.86 10.8c-.72.22-1.45.32-2.17.32-.07-4.91.31-10.14 1.25-15.71l32.45-9.77c3.97-1.2 8.15 1.05 9.35 5.01 1.19 3.97-1.05 8.15-5.02 9.35z" fill="#75cef9" data-original="#75cef9" style="" class=""/></g></g></g></svg>
